<svg id="Camada_1" data-name="Camada 1" xmlns="http://www.w3.org/2000/svg" viewBox="0 0 1020.26 147.8"><polygon points="0 143.5 120.16 0.5 145.85 0.5 25.69 143.5 0 143.5"/><polygon points="46.99 143.5 165.16 0.5 199.85 0.5 79.69 143.5 46.99 143.5"/><polygon points="249.93 0 249.93 143.5 221.05 143.5 221.05 48.39 139.7 143.5 100.66 143.5 171.54 59.23 218.29 3.65 218.35 3.58 221.05 0.36 221.36 0 249.93 0"/><path d="M283.71,142.48A36.21,36.21,0,0,1,268,127q-5.4-10.15-5.4-24.4V1.49H290V103.28q0,8.86,4.87,13.8T308.5,122q8.91,0,13.84-4.93t4.93-13.8V1.49h27.36v101.1q0,14.23-5.45,24.4a36.55,36.55,0,0,1-15.83,15.49Q323,147.81,308.5,147.8T283.71,142.48Z"/><path d="M361.29,1.49h93.93v25H361.29Zm33.23,12.06h27.36V146.31H394.52Z"/><path d="M484.42,142.53A38.07,38.07,0,0,1,468,127.34q-5.78-9.91-5.77-23.16V43.62q0-13.33,5.77-23.2A38.08,38.08,0,0,1,484.42,5.28Q495.12,0,509.48,0t25.06,5.28A38.08,38.08,0,0,1,551,20.42q5.78,9.85,5.77,23.2v60.56q0,13.25-5.77,23.16a38.07,38.07,0,0,1-16.45,15.19q-10.69,5.28-25.06,5.27T484.42,142.53Zm35.33-23a15.62,15.62,0,0,0,6.71-6.58,21.07,21.07,0,0,0,2.31-10.15V44.92a20.9,20.9,0,0,0-2.31-10.06,15.93,15.93,0,0,0-6.71-6.62,21.56,21.56,0,0,0-10.27-2.34,21.27,21.27,0,0,0-10.22,2.34,16.34,16.34,0,0,0-6.71,6.62,20.58,20.58,0,0,0-2.36,10.06v57.87a20.74,20.74,0,0,0,2.36,10.15,16,16,0,0,0,6.71,6.58,21.61,21.61,0,0,0,10.22,2.29A21.9,21.9,0,0,0,519.75,119.52Z"/><path d="M579.46,1.49h27.26V146.31H579.46ZM593.2,121.61h35.64q7.33,0,11.37-3.49t4-9.76v-10a15.72,15.72,0,0,0-1.78-7.77,11.68,11.68,0,0,0-5.35-4.88,19.75,19.75,0,0,0-8.49-1.69H593.2V59.46h35.12q6.81,0,10.53-3.49t3.72-10V38.25q0-5.78-3.77-9t-10.48-3.19H593.2V1.49h37q12.59,0,21.44,4.09a29.63,29.63,0,0,1,13.47,11.8q4.62,7.73,4.61,18.67v7.87a28,28,0,0,1-3,13.2,24.38,24.38,0,0,1-8.91,9.51,36.87,36.87,0,0,1-14,5,36.64,36.64,0,0,1,15.09,5,26.36,26.36,0,0,1,9.59,10.21,30.66,30.66,0,0,1,3.31,14.54v10.06q0,11.05-4.62,18.87a29.43,29.43,0,0,1-13.52,11.91q-8.91,4.08-21.39,4.08h-39Z"/><polygon points="793.59 146.31 765.28 146.31 758.66 123.5 751.49 98.8 737.19 49.5 722.88 98.8 715.71 123.5 709.09 146.31 680.79 146.31 728.07 1.49 746.31 1.49 793.59 146.31"/><path d="M806.86,1.49h27.26V146.31H806.86Zm12.79,61h69.92v24.6H819.65Zm52.21-61h27.25V146.31H871.86Z"/><path d="M923.39,1.49h27.68L997.4,105.18l-2.72,3.28V1.49h25.58V146.21h-28L946.35,46.11l2.52-3.28V146.21H923.39Z"/></svg>